<?xml version="1.0" encoding="UTF-8"?>
<svg width="512px" height="193px" viewBox="0 0 512 193" version="1.1" xmlns="http://www.w3.org/2000/svg" xmlns:xlink="http://www.w3.org/1999/xlink">
    <!-- Generator: Sketch 52.2 (67145) - http://www.bohemiancoding.com/sketch -->
    <title>logo-512x193</title>
    <desc>Created with Sketch.</desc>
    <g id="logo-512x193" stroke="none" stroke-width="1" fill="none" fill-rule="evenodd">
        <g id="6.-Logos/1.-Nav/1.-4.0/1.-Jumbo/1.-Primary" fill="#0091EA">
            <g id="Wordmark">
                <path d="M0,179.836415 L0,5.37062937 C-3.63244532e-16,2.40451267 2.40451267,3.20940206e-15 5.37062937,2.66453526e-15 L47.655125,7.10542736e-15 C49.2799988,1.11364763e-14 50.8175145,0.73563558 51.8370308,2.00086328 L136.324299,106.850218 L136.324299,5.37062937 C136.324299,2.40451267 138.728812,-1.10014527e-14 141.694928,-1.15463195e-14 L181.178411,0 C184.144528,-1.63515118e-14 186.549041,2.40451267 186.549041,5.37062937 L186.549041,179.836415 C186.549041,182.802532 184.144528,185.207044 181.178411,185.207044 L138.893916,185.207044 C137.269042,185.207044 135.731526,184.471409 134.71201,183.206181 L50.2247417,78.3568264 L50.2247417,179.836415 C50.2247417,182.802532 47.8202291,185.207044 44.8541124,185.207044 L5.37062937,185.207044 C2.40451267,185.207044 -3.67869998e-15,182.802532 -7.99360578e-15,179.836415 Z" id="N-Copy-22"></path>
                <path d="M361.203758,49.863435 L397.236961,49.863435 C402.05457,49.863435 406.282891,53.0710929 407.580966,57.7105273 L432.291527,146.028242 L457.002088,57.7105273 C458.300163,53.0710929 462.528484,49.863435 467.346093,49.863435 L503.379296,49.863435 C505.85106,49.863435 507.854821,51.8671956 507.854821,54.3389595 C507.854821,54.7811678 507.789284,55.2209347 507.660345,55.6439277 L469.712683,180.134154 C468.79404,183.147833 466.013587,185.207044 462.863006,185.207044 L401.720049,185.207044 C398.569467,185.207044 395.789014,183.147833 394.870371,180.134154 L356.922709,55.6439277 C356.201995,53.2795698 357.534432,50.7786249 359.898789,50.0579108 C360.321782,49.9289722 360.761549,49.863435 361.203758,49.863435 Z" id="N-Copy-21"></path>
                <path d="M243.066873,116.695469 C243.066873,121.079508 243.854251,125.156604 245.429032,128.926878 C247.003812,132.697152 249.147231,135.985132 251.859352,138.790918 C254.571474,141.596703 257.808474,143.78869 261.570449,145.366944 C265.332424,146.945198 269.400545,147.734313 273.774935,147.734313 C277.974349,147.734313 281.954984,146.945198 285.716959,145.366944 C289.478935,143.78869 292.715934,141.596703 295.428056,138.790918 C298.140178,135.985132 300.32734,132.740992 301.989608,129.058398 C303.651876,125.375805 304.482997,121.430229 304.482997,117.221551 C304.482997,113.012873 303.651876,109.023457 301.989608,105.253183 C300.32734,101.482909 298.140178,98.1949285 295.428056,95.3891433 C292.715934,92.583358 289.478935,90.3913711 285.716959,88.8131169 C281.954984,87.2348626 277.974349,86.4457473 273.774935,86.4457473 C269.400545,86.4457473 265.332424,87.2348626 261.570449,88.8131169 C257.808474,90.3913711 254.571474,92.583358 251.859352,95.3891433 C249.147231,98.1949285 247.003812,101.395229 245.429032,104.990142 C243.854251,108.585054 243.066873,112.486791 243.066873,116.695469 Z M308.512821,49.863435 L345.305692,49.863435 C348.271809,49.863435 350.676322,52.2679477 350.676322,55.2340644 L350.676322,179.836415 C350.676322,182.802532 348.271809,185.207044 345.305692,185.207044 L308.568367,185.207044 C305.613162,185.207044 303.213193,182.819536 303.19781,179.864371 L303.142191,169.179512 C292.993607,181.980907 279.024263,188.768718 261.70168,188.768718 C251.903047,188.768718 242.891939,186.971289 234.668087,183.376377 C226.444234,179.781464 219.270343,174.739894 213.146197,168.251516 C207.022051,161.763137 202.254038,154.135023 198.842014,145.366944 C195.42999,136.598865 193.724004,127.041802 193.724004,116.695469 C193.724004,107.050582 195.386247,97.8880767 198.710783,89.2076784 C202.035319,80.5272802 206.672103,72.9430056 212.621273,66.4546271 C218.570443,59.9662486 225.656848,54.8369993 233.880701,51.0667253 C242.104553,47.2964513 251.203147,45.4113426 261.176756,45.4113426 C277.974412,45.4113426 292.119646,52.3565959 303.142191,65.8909677 L303.142191,55.2340644 C303.142191,52.2679477 305.546704,49.863435 308.512821,49.863435 Z" id="a-copy-11"></path>
            </g>
        </g>
    </g>
</svg>