<?xml version="1.0" encoding="UTF-8"?>
<svg width="192px" height="73px" viewBox="0 0 192 73" version="1.1" xmlns="http://www.w3.org/2000/svg" xmlns:xlink="http://www.w3.org/1999/xlink">
    <!-- Generator: Sketch 52.2 (67145) - http://www.bohemiancoding.com/sketch -->
    <title>logo-192x73</title>
    <desc>Created with Sketch.</desc>
    <g id="logo-192x73" stroke="none" stroke-width="1" fill="none" fill-rule="evenodd">
        <g id="6.-Logos/1.-Nav/1.-4.0/1.-Jumbo/1.-Primary" fill="#FFFFFF">
            <g id="Wordmark">
                <path d="M0,67.8041958 L0,2.01398601 C-1.362167e-16,0.901692252 0.901692252,-6.8385337e-16 2.01398601,-8.8817842e-16 L17.9313378,2.66453526e-15 C18.5413449,2.55247877e-15 19.1184804,0.276476086 19.500768,0.751833709 L51.2895105,40.2797203 L51.2895105,2.01398601 C51.2895105,0.901692252 52.1912027,3.7118971e-15 53.3034965,-4.4408921e-16 L68.1716599,0 C69.2839537,-2.04325049e-16 70.1856459,0.901692252 70.1856459,2.01398601 L70.1856459,67.8041958 C70.1856459,68.9164896 69.2839537,69.8181818 68.1716599,69.8181818 L52.2543081,69.8181818 C51.644301,69.8181818 51.0671655,69.5417057 50.6848779,69.0663481 L18.8961354,29.5384615 L18.8961354,67.8041958 C18.8961354,68.9164896 17.9944432,69.8181818 16.8821494,69.8181818 L2.01398601,69.8181818 C0.901692252,69.8181818 -1.04644559e-15,68.9164896 -2.66453526e-15,67.8041958 Z" id="N-Copy-22"></path>
                <path d="M135.887528,18.7972028 L149.461516,18.7972028 C151.268883,18.7972028 152.854977,20.0010724 153.341072,21.7418442 L162.641737,55.0488044 L171.942403,21.7418442 C172.428497,20.0010724 174.014592,18.7972028 175.821958,18.7972028 L189.395946,18.7972028 C190.322858,18.7972028 191.074268,19.548613 191.074268,20.4755245 C191.074268,20.6410437 191.049783,20.8056525 191.001608,20.9640059 L176.718142,67.9144374 C176.374113,69.0452774 175.331097,69.8181818 174.149084,69.8181818 L151.134391,69.8181818 C149.952378,69.8181818 148.909361,69.0452774 148.565332,67.9144374 L134.281866,20.9640059 C134.012086,20.0772234 134.512264,19.1396436 135.399047,18.8698628 C135.5574,18.8216878 135.722009,18.7972028 135.887528,18.7972028 Z" id="N-Copy-21"></path>
                <path d="M91.449441,43.9911208 C91.449441,45.6437883 91.7456776,47.1807461 92.3381597,48.6020402 C92.9306418,50.0233342 93.7370637,51.2628163 94.7574496,52.3205235 C95.7778355,53.3782307 96.9956972,54.2045521 98.4110711,54.7995124 C99.8264451,55.3944727 101.357001,55.6919484 103.002785,55.6919484 C104.582737,55.6919484 106.080378,55.3944727 107.495752,54.7995124 C108.911126,54.2045521 110.128987,53.3782307 111.149373,52.3205235 C112.169759,51.2628163 112.992639,50.0398607 113.618036,48.6516199 C114.243434,47.2633792 114.556128,45.7760007 114.556128,44.1894399 C114.556128,42.6028791 114.243434,41.0989742 113.618036,39.6776801 C112.992639,38.256386 112.169759,37.016904 111.149373,35.9591968 C110.128987,34.9014895 108.911126,34.0751682 107.495752,33.4802079 C106.080378,32.8852476 104.582737,32.5877719 103.002785,32.5877719 C101.357001,32.5877719 99.8264451,32.8852476 98.4110711,33.4802079 C96.9956972,34.0751682 95.7778355,34.9014895 94.7574496,35.9591968 C93.7370637,37.016904 92.9306418,38.2233332 92.3381597,39.5785206 C91.7456776,40.9337079 91.449441,42.40456 91.449441,43.9911208 Z M116.065661,18.7972028 L129.921531,18.7972028 C131.033825,18.7972028 131.935517,19.698895 131.935517,20.8111888 L131.935517,67.8041958 C131.935517,68.9164896 131.033825,69.8181818 129.921531,69.8181818 L116.086614,69.8181818 C114.978404,69.8181818 114.078412,68.9228536 114.072655,67.8146586 L114.051675,63.7762238 C110.233456,68.602013 104.977748,71.1608392 98.4604444,71.1608392 C94.7738889,71.1608392 91.3836254,70.4832556 88.2895521,69.1280683 C85.1954788,67.7728809 82.496434,65.8723417 80.1923369,63.4263938 C77.8882397,60.9804458 76.0943624,58.1048475 74.8106511,54.7995124 C73.5269399,51.4941774 72.8850939,47.8914162 72.8850939,43.9911208 C72.8850939,40.3552522 73.5104823,36.9012289 74.7612779,33.6289472 C76.0120735,30.3566655 77.756578,27.4975935 79.9948438,25.0516456 C82.2331096,22.6056977 84.8992392,20.6721057 87.9933125,19.2508116 C91.0873858,17.8295175 94.5105645,17.1188811 98.2629513,17.1188811 C104.582761,17.1188811 109.904645,19.7370588 114.051675,24.8391608 L114.051675,20.8111888 C114.051675,19.698895 114.953367,18.7972028 116.065661,18.7972028 Z" id="a-copy-11"></path>
            </g>
        </g>
    </g>
</svg>